<svg xmlns="http://www.w3.org/2000/svg" viewBox="0 0 100 100">
  <rect width="100" height="100" rx="20" fill="#1a3a5f" />
  <path d="M20 75V45a5 5 0 0 1 10 0v30a5 5 0 0 1-10 0z" fill="#d4a017" />
  <path d="M35 75V25a5 5 0 0 1 10 0v50a5 5 0 0 1-10 0z" fill="#d4a017" />
  <path d="M50 75V45a5 5 0 0 1 10 0v30a5 5 0 0 1-10 0z" fill="#d4a017" />
  <path d="M65 75V25a5 5 0 0 1 10 0v50a5 5 0 0 1-10 0z" fill="#d4a017" />
  <path d="M80 75V45a5 5 0 0 1 10 0v30a5 5 0 0 1-10 0z" fill="#d4a017" />
  <circle cx="85" cy="15" r="8" fill="#df4534" stroke="#ffffff" stroke-width="2" />
</svg>